<svg xmlns="http://www.w3.org/2000/svg" version="1.1" xmlns:xlink="http://www.w3.org/1999/xlink" xmlns:svgjs="http://svgjs.com/svgjs" width="1000" height="1000"><g transform="matrix(3.563156957063959,0,0,3.563156957063959,0.000007822134250545787,213.4737309510615)"><svg xmlns="http://www.w3.org/2000/svg" version="1.1" xmlns:xlink="http://www.w3.org/1999/xlink" xmlns:svgjs="http://svgjs.com/svgjs" width="280.65" height="160.82"><svg id="b" xmlns="http://www.w3.org/2000/svg" viewBox="0 0 280.65 160.82"><defs><style>.d{fill:#fdd03b;}.e{fill:#496a70;}</style></defs><g id="c"><path class="d" d="m155.51,51.67C143.94,21.46,114.69,0,80.41,0S16.88,21.46,5.31,51.67C1.89,60.6,0,70.28,0,80.41c0,14.35,3.77,27.8,10.36,39.47,13.8,24.44,39.99,40.95,70.05,40.95s56.26-16.51,70.05-40.95c6.58-11.66,10.36-25.12,10.36-39.47,0-10.13-1.89-19.81-5.31-28.74Z"></path><path class="e" d="m113.73,96.45v-19.43c0-1.64-.25-3.08-.73-4.32-.38-.96-.89-1.81-1.55-2.53-.65-.7-1.4-1.24-2.25-1.65-1.15-.54-2.47-.82-3.98-.82s-3.02.38-4.5,1.14c-.65.34-1.21.75-1.7,1.21-.3.29-.57.59-.81.92,0,.01-.02.02-.02.03-.23.33-.43.68-.6,1.05,0,0,0,.02-.01.03-.08.21-.15.44-.22.69-.26.97-.4,2.21-.4,3.75v19.92h0s-4.68,0-4.68,0h0s0,0,0,0v-19.25c0-1.56-.17-2.9-.5-4.04-.28-.96-.66-1.78-1.17-2.43-.58-.76-1.25-1.37-2.01-1.84-1.26-.79-2.74-1.18-4.47-1.18-.78,0-1.54.1-2.3.29-.84.21-1.67.53-2.49.98-.41.22-.78.47-1.12.73-.96.74-1.67,1.66-2.12,2.75-.33.75-.53,1.73-.62,2.93-.03.45-.05.93-.05,1.45v19.62h-4.69v-32.02h0s4.57,0,4.57,0h0s0,0,0,0v4.38l.05-.05,1.18-1.37c2.35-2.47,5.26-3.7,8.76-3.7,1.02,0,2.03.14,3.02.38.64.16,1.28.35,1.91.61.52.19.97.39,1.39.61.56.29,1.03.6,1.41.93.07.06.16.13.23.19,0,0,0,0,0,0h0c.38.38.79.89,1.22,1.52.32.46.65.97,1,1.56.89-1.32,1.85-2.4,2.9-3.23.65-.52,1.33-.94,2.03-1.27.74-.34,1.48-.6,2.24-.81,1.14-.31,2.31-.49,3.5-.49,1.74,0,3.32.26,4.74.77,1.57.55,2.95,1.4,4.14,2.57.44.44.83.91,1.19,1.4,1.26,1.74,1.98,3.85,2.16,6.32.03.4.05.81.05,1.22v20.48h0s-4.68,0-4.68,0h0s0,0,0,0Z"></path><path class="e" d="m60.78,96.45v-19.43c0-1.68-.26-3.15-.77-4.41-.37-.93-.87-1.74-1.52-2.44-.63-.68-1.36-1.22-2.19-1.62-1.16-.56-2.5-.85-4.04-.85s-3.02.38-4.5,1.14c-.63.33-1.17.72-1.65,1.17-.64.59-1.15,1.28-1.5,2.08-.09.23-.17.49-.25.77-.25.95-.37,2.17-.37,3.67v19.92h0s-4.68,0-4.68,0h0s0,0,0,0v-19.25c0-1.62-.18-3.01-.54-4.18-.27-.9-.65-1.67-1.13-2.29-.58-.75-1.23-1.35-1.97-1.82-1.26-.8-2.76-1.2-4.5-1.2-.77,0-1.53.1-2.28.29-.85.21-1.68.53-2.5.98-.44.24-.83.51-1.19.8-.91.73-1.6,1.62-2.05,2.68-.32.72-.52,1.67-.61,2.82-.04.49-.07,1-.07,1.56v19.62h-4.69v-32.02h0s4.57,0,4.57,0h0s0,0,0,0v4.38l.17-.19,1.06-1.23c2.35-2.47,5.26-3.7,8.76-3.7,1.03,0,2.04.14,3.04.39.64.16,1.27.35,1.89.6.5.18.93.38,1.33.58.61.31,1.12.64,1.52,1,.06.05.12.1.17.15,0,0,0,0,0,0h0c.4.4.82.94,1.28,1.6.3.44.62.92.94,1.48.87-1.29,1.81-2.35,2.83-3.17.67-.54,1.37-.99,2.1-1.33.75-.35,1.51-.61,2.28-.82,1.13-.31,2.28-.48,3.46-.48,1.76,0,3.36.27,4.8.78,1.55.55,2.91,1.4,4.08,2.55.39.39.74.8,1.06,1.23,1.53,2.03,2.31,4.56,2.33,7.6,0,.04,0,.07,0,.11v20.48h0s-4.68,0-4.68,0h0s0,0,0,0Z"></path><polygon class="e" points="7.09 96.45 7.09 64.44 11.77 64.44 11.77 96.45 11.77 96.45 11.77 96.45 7.09 96.45 7.09 96.45 7.09 96.45"></polygon><path class="e" d="m153.78,69.32c-.11-.13-.24-.25-.35-.38-.25-.28-.49-.56-.77-.83h0s0,0,0,0c-.07-.07-.15-.13-.23-.2-3.16-2.96-7.22-4.46-12.2-4.46-2.59,0-4.93.41-7.02,1.21-2.03.78-3.84,1.94-5.41,3.48-3.19,3.12-4.78,7.17-4.78,12.15,0,2.25.32,4.29.94,6.15.56,1.7,1.37,3.24,2.45,4.61.42.54.86,1.06,1.36,1.54,1.38,1.36,2.96,2.4,4.72,3.16,2.27.99,4.84,1.5,7.74,1.5,4.6,0,8.42-1.29,11.47-3.84.33-.27.66-.55.97-.86.57-.56,1.07-1.16,1.54-1.78,2.15-2.85,3.24-6.34,3.24-10.49,0-4.39-1.22-8.05-3.66-10.97Zm-4.76,20.13c-2.32,2.4-5.26,3.61-8.79,3.61s-6.52-1.2-8.82-3.61c-2.3-2.41-3.45-5.46-3.45-9.16s1.14-6.72,3.42-9.07c2.28-2.34,5.23-3.51,8.85-3.51s6.67,1.16,8.91,3.48c2.24,2.32,3.36,5.36,3.36,9.1s-1.16,6.75-3.48,9.16Z"></path><rect class="e" x="165.5" y="51.98" width="4.69" height="44.47"></rect><path class="e" d="m204.43,68.11c-3.19-3.1-7.33-4.66-12.43-4.66s-9.24,1.56-12.43,4.69c-3.19,3.12-4.78,7.18-4.78,12.15s1.58,9.2,4.75,12.31c3.16,3.1,7.32,4.66,12.46,4.66s9.24-1.56,12.43-4.69c3.19-3.12,4.78-7.22,4.78-12.28s-1.59-9.08-4.78-12.18Zm-3.64,21.34c-2.32,2.4-5.26,3.61-8.79,3.61s-6.52-1.2-8.82-3.61c-2.3-2.41-3.45-5.46-3.45-9.16s1.14-6.72,3.42-9.07c2.28-2.34,5.23-3.51,8.85-3.51s6.67,1.16,8.91,3.48c2.24,2.32,3.36,5.36,3.36,9.1s-1.16,6.75-3.48,9.16Z"></path><path class="e" d="m240.89,64.44v6.35c-1.07-1.68-2.01-2.9-2.81-3.64-.8-.74-1.92-1.42-3.36-2.04-2.18-.9-4.28-1.36-6.29-1.36-4.53,0-8.39,1.6-11.6,4.81-1.56,1.56-2.65,3.13-3.27,4.72-.62,1.58-1.09,3.98-1.42,7.19,0,1.48.11,2.79.34,3.92.23,1.13.5,2.19.83,3.18.58,1.65,1.63,3.23,3.15,4.75,3.16,3.21,7.13,4.81,11.9,4.81,4.52,0,8-1.4,10.43-4.19.7-.74,1.36-1.64,1.97-2.71v5.06c0,7.03-4.42,10.55-13.26,10.55-1.36,0-2.96-.17-4.81-.5v4.14c1.97.25,3.66.37,5.05.37,11.85,0,17.76-4.99,17.76-14.99v-30.41h-4.62Zm-3.42,25.07c-2.28,2.41-5.15,3.61-8.6,3.61s-6.21-1.21-8.51-3.64c-2.3-2.43-3.45-5.43-3.45-9.01,0-3.82,1.14-6.92,3.42-9.28,2.28-2.36,5.13-3.55,8.54-3.55s6.42,1.21,8.66,3.64c2.24,2.43,3.36,5.51,3.36,9.25s-1.14,6.57-3.42,8.98Z"></path><path class="e" d="m276.08,64.44v18.51c0,3.25-.78,5.61-2.34,7.09-2.05,1.98-4.6,2.96-7.65,2.96-3.25,0-5.78-1.01-7.59-3.02-.94-1.07-1.58-2.32-1.91-3.76-.16-.82-.25-2.26-.25-4.32v-17.46h-4.69v18.81c0,2.3.21,4.21.62,5.74.54,1.44,1.32,2.74,2.34,3.89,2.59,2.71,5.96,4.07,10.11,4.07,3.91,0,7.05-1.19,9.44-3.58l1.85-1.97v2.9c0,1.77-.27,3.29-.8,4.56-.53,1.28-1.34,2.38-2.4,3.33-2.14,1.89-5.12,2.84-8.95,2.84l-4.99-.25v3.95c.49.04,1.23.13,2.22.25h3.09c4.64,0,8.55-1.15,11.72-3.45,3.17-2.3,4.75-5.78,4.75-10.42v-30.66h-4.57Z"></path></g></svg></svg></g></svg>
